Coordinates
version=1
nRows=11
nColumns=26
inDegrees=yes

Units are S.I. units (second, meters, Newtons, ...)
Angles are in degrees.

endheader
time	pelvis_tilt	pelvis_list	pelvis_rotation	pelvis_tx	pelvis_ty	pelvis_tz	hip_flexion_r	hip_adduction_r	hip_rotation_r	knee_angle_r	knee_angle_r_beta	ankle_angle_r	subtalar_angle_r	mtp_angle_r	hip_flexion_l	hip_adduction_l	hip_rotation_l	knee_angle_l	knee_angle_l_beta	ankle_angle_l	subtalar_angle_l	mtp_angle_l	lumbar_extension	lumbar_bending	lumbar_rotation
      0.80833333	     10.03545854	     -2.53775180	      0.96687414	      0.98939360	      1.00995345	      0.28089265	      0.14019636	      5.29895683	     -9.67240321	     14.18431689	     14.18431689	      2.32435051	      0.00000000	      0.00000000	      1.57495983	    -13.68767411	    -13.95387005	     63.73104626	     63.73104626	      7.66973248	      0.00000000	      0.00000000	    -21.71717518	      4.35575444	      6.47146422
      0.81666667	      9.88865034	     -2.49599752	      0.86376107	      0.99671335	      1.01067979	      0.28172323	     -0.34014540	      5.33898133	     -9.59437350	     13.89071011	     13.89071011	      2.52401313	      0.00000000	      0.00000000	      2.92561800	    -13.66633660	    -13.91920377	     63.96022202	     63.96022202	      7.66512006	      0.00000000	      0.00000000	    -21.59212203	      4.24338838	      6.44559928
      0.82500000	      9.69295564	     -2.53735289	      0.84451461	      1.00394964	      1.01125902	      0.28229011	     -0.80017770	      5.47445479	     -9.52020204	     13.50857364	     13.50857364	      2.64603565	      0.00000000	      0.00000000	      4.36802274	    -13.67427503	    -13.76096530	     64.02963481	     64.02963481	      7.61761676	      0.00000000	      0.00000000	    -21.41157856	      4.26981492	      6.37620646
      0.83333333	      9.48194578	     -2.47725946	      0.79848336	      1.01106071	      1.01178103	      0.28309161	     -1.29576964	      5.51802260	     -9.36603307	     13.02303301	     13.02303301	      2.78601426	      0.00000000	      0.00000000	      6.05587291	    -13.57364479	    -13.64175058	     64.18495129	     64.18495129	      7.15656988	      0.00000000	      0.00000000	    -21.23418617	      4.15240638	      6.28727820
      0.84166667	      9.31042823	     -2.37716254	      0.74199501	      1.01824003	      1.01236845	      0.28358881	     -1.79939248	      5.48449719	     -9.25539101	     12.63277337	     12.63277337	      2.96872315	      0.00000000	      0.00000000	      7.39477280	    -13.33809953	    -13.56054976	     63.91331401	     63.91331401	      7.06507916	      0.00000000	      0.00000000	    -21.09345386	      4.03525678	      6.19797044
      0.85000000	      9.10622633	     -2.32449156	      0.73076294	      1.02533671	      1.01288097	      0.28393927	     -2.26277644	      5.49714092	     -9.14616716	     12.22963094	     12.22963094	      3.14065679	      0.00000000	      0.00000000	      8.55112925	    -12.99102183	    -13.23561035	     63.24591260	     63.24591260	      7.27699713	      0.00000000	      0.00000000	    -20.92348166	      4.00317252	      6.06758156
      0.85833333	      8.99153604	     -2.11025269	      0.55900917	      1.03247939	      1.01351487	      0.28438751	     -2.81003137	      5.30535558	     -8.93174136	     11.87496291	     11.87496291	      3.35516550	      0.00000000	      0.00000000	      9.56394479	    -12.53435841	    -13.25813015	     62.42409968	     62.42409968	      7.17754619	      0.00000000	      0.00000000	    -20.85541625	      3.77201296	      6.02148236
      0.86666667	      8.87189742	     -2.07335125	      0.46911694	      1.03960624	      1.01400950	      0.28474779	     -3.37735282	      5.30931422	     -8.75913444	     11.44437267	     11.44437267	      3.40599831	      0.00000000	      0.00000000	     10.66593030	    -12.25332903	    -13.18049456	     61.56933176	     61.56933176	      6.85821890	      0.00000000	      0.00000000	    -20.78496245	      3.76613013	      5.97368203
      0.87500000	      8.70788867	     -2.11107688	      0.39792780	      1.04668251	      1.01434033	      0.28524261	     -3.91508598	      5.43154842	     -8.53899497	     10.97059125	     10.97059125	      3.52390963	      0.00000000	      0.00000000	     11.80055581	    -12.07946737	    -13.11115656	     60.61336632	     60.61336632	      6.63366431	      0.00000000	      0.00000000	    -20.67800265	      3.82546762	      5.96236432
      0.88333333	      8.49323726	     -2.31014516	      0.32263130	      1.05377169	      1.01448226	      0.28588586	     -4.44111646	      5.74844189	     -8.23639368	     10.34567332	     10.34567332	      3.46462973	      0.00000000	      0.00000000	     12.98207246	    -12.12185594	    -13.03769408	     59.63451415	     59.63451415	      6.45263486	      0.00000000	      0.00000000	    -20.51843435	      4.05149376	      5.99748113
      0.89166667	      8.25348796	     -2.44535407	      0.28946932	      1.06078942	      1.01430583	      0.28645755	     -4.89003586	      6.00922733	     -8.16187703	      9.89528741	      9.89528741	      3.81134993	      0.00000000	      0.00000000	     14.14576155	    -12.06035653	    -12.85913126	     58.51217680	     58.51217680	      6.23008618	      0.00000000	      0.00000000	    -20.32216132	      4.21849518	      5.98281560
